<svg id="calendar3-week" xmlns="http://www.w3.org/2000/svg" width="22.281" height="22.281" viewBox="0 0 22.281 22.281">
  <path id="Path_27" data-name="Path 27" d="M19.5,0H2.785A2.785,2.785,0,0,0,0,2.785V19.5a2.785,2.785,0,0,0,2.785,2.785H19.5A2.785,2.785,0,0,0,22.281,19.5V2.785A2.785,2.785,0,0,0,19.5,0ZM1.393,5.371A1.305,1.305,0,0,1,2.785,4.178H19.5a1.305,1.305,0,0,1,1.393,1.193V19.695A1.305,1.305,0,0,1,19.5,20.888H2.785a1.305,1.305,0,0,1-1.393-1.193Z" transform="translate(0)" fill="#fff" fill-rule="evenodd"/>
  <path id="Path_28" data-name="Path 28" d="M19.283,14.035a1.393,1.393,0,1,0-1.393-1.393A1.393,1.393,0,0,0,19.283,14.035ZM12.32,18.213a1.393,1.393,0,1,0-1.393-1.393A1.393,1.393,0,0,0,12.32,18.213Zm2.785-4.178a1.393,1.393,0,1,0-1.393-1.393A1.393,1.393,0,0,0,15.105,14.035ZM8.143,18.213A1.393,1.393,0,1,0,6.75,16.82,1.393,1.393,0,0,0,8.143,18.213Z" transform="translate(-2.572 -4.287)" fill="#fff" fill-rule="evenodd"/>
</svg>
