<svg xmlns="http://www.w3.org/2000/svg" width="15.857" height="18.5" viewBox="0 0 15.857 18.5">
  <path id="file-pdf-o" d="M15.155,3.923a2.4,2.4,0,0,1,.5.785,2.394,2.394,0,0,1,.207.909V17.509a.988.988,0,0,1-.991.991H.991a.955.955,0,0,1-.7-.289.958.958,0,0,1-.289-.7V.991a.955.955,0,0,1,.289-.7A.958.958,0,0,1,.991,0h9.25a2.381,2.381,0,0,1,.909.207,2.409,2.409,0,0,1,.785.5ZM10.571,1.4V5.286h3.882a1.128,1.128,0,0,0-.227-.423L10.994,1.631a1.128,1.128,0,0,0-.423-.227Zm3.964,15.774V6.607H10.241a.988.988,0,0,1-.991-.991V1.321H1.321V17.178H14.535ZM9.229,11.056a7.879,7.879,0,0,0,.867.578,10.213,10.213,0,0,1,1.208-.072q1.517,0,1.827.506a.5.5,0,0,1,.021.537.03.03,0,0,1-.01.021l-.021.021v.01q-.062.392-.733.392a4.256,4.256,0,0,1-1.187-.207,7.537,7.537,0,0,1-1.342-.547,18.59,18.59,0,0,0-4.047.857q-1.58,2.7-2.5,2.7a.6.6,0,0,1-.289-.072l-.248-.124q-.01-.01-.062-.051a.427.427,0,0,1-.062-.372,2.241,2.241,0,0,1,.578-.945,5,5,0,0,1,1.363-1,.151.151,0,0,1,.237.062.059.059,0,0,1,.021.041q.537-.878,1.1-2.034a15.749,15.749,0,0,0,1.073-2.7,8.356,8.356,0,0,1-.315-1.646A3.97,3.97,0,0,1,6.783,5.7q.114-.413.434-.413h.227A.435.435,0,0,1,7.8,5.44a.824.824,0,0,1,.093.7.224.224,0,0,1-.041.083.269.269,0,0,1,.01.083v.31A13.514,13.514,0,0,1,7.723,8.6,5.221,5.221,0,0,0,9.23,11.056ZM3.283,15.3A4.554,4.554,0,0,0,4.7,13.668a5.882,5.882,0,0,0-.9.867,3.428,3.428,0,0,0-.511.764ZM7.392,5.8a3.073,3.073,0,0,0-.021,1.363q.01-.072.072-.454,0-.031.072-.444a.236.236,0,0,1,.041-.083.03.03,0,0,1-.01-.021.079.079,0,0,1-.01-.031A.594.594,0,0,0,7.4,5.761a.03.03,0,0,1-.01.021V5.8Zm-1.28,6.824a15.127,15.127,0,0,1,2.932-.836,1.56,1.56,0,0,1-.134-.1,1.855,1.855,0,0,1-.165-.139A5.464,5.464,0,0,1,7.433,9.735a13.773,13.773,0,0,1-.857,2.034q-.31.578-.465.857Zm6.669-.165a2.472,2.472,0,0,0-1.446-.248,3.9,3.9,0,0,0,1.28.289,1.01,1.01,0,0,0,.186-.01q0-.01-.021-.031Z" fill="red"/>
</svg>
