<svg xmlns="http://www.w3.org/2000/svg" width="22.356" height="22.303" viewBox="0 0 22.356 22.303">
  <path id="time" d="M11.178.25a10.771,10.771,0,0,1,7.905,3.272,10.741,10.741,0,0,1,3.272,7.88,10.741,10.741,0,0,1-3.272,7.88,10.771,10.771,0,0,1-7.905,3.272,10.771,10.771,0,0,1-7.905-3.272A10.743,10.743,0,0,1,0,11.4a10.738,10.738,0,0,1,3.272-7.88A10.773,10.773,0,0,1,11.178.25Zm0,20.1a8.6,8.6,0,0,0,6.309-2.618A8.629,8.629,0,0,0,20.105,11.4a8.629,8.629,0,0,0-2.618-6.335,8.6,8.6,0,0,0-6.309-2.618A8.6,8.6,0,0,0,4.869,5.067,8.629,8.629,0,0,0,2.251,11.4a8.629,8.629,0,0,0,2.618,6.335A8.6,8.6,0,0,0,11.178,20.355ZM11.728,5.8v5.864l5.026,2.984-.837,1.414L10.053,12.5V5.8h1.676Z" transform="translate(0 -0.25)" fill="#fff"/>
</svg>
